<svg width="130" height="130" viewBox="0 0 130 130" fill="none" xmlns="http://www.w3.org/2000/svg">
<circle cx="65" cy="65" r="64.5" stroke="#7C7C7C"/>
<path d="M51.1279 62.3604V73.3949C51.1279 74.3119 51.6312 75.1549 52.4384 75.5901V75.5901C60.7487 80.0701 70.755 80.0701 79.0654 75.5901V75.5901C79.8725 75.1549 80.3758 74.3119 80.3758 73.3949V62.3604" stroke="#393939" stroke-width="1.95909"/>
<path d="M92.3345 54.8683L66.7838 43.24C66.448 43.0872 66.0632 43.0835 65.7245 43.23L38.8295 54.858C37.7708 55.3158 37.7818 56.821 38.8472 57.2631L65.7426 68.4263C66.0709 68.5625 66.4405 68.5591 66.7662 68.4168L92.3164 57.2539C93.352 56.8014 93.3631 55.3364 92.3345 54.8683Z" stroke="#393939" stroke-width="1.95909"/>
<path d="M42.3616 58.6978V80.6745M42.3616 80.6745V80.6745C41.0762 80.6745 40.0342 81.7165 40.0342 83.0019V87.8677C40.0342 87.9408 40.0935 88.0001 40.1666 88.0001H44.9445C45.0176 88.0001 45.0769 87.9408 45.0769 87.8677V83.3898C45.0769 81.8902 43.8612 80.6745 42.3616 80.6745V80.6745Z" stroke="#393939" stroke-width="1.95909"/>
<path d="M87.4646 77.0116C87.4646 81.4178 84.0312 84.9274 79.8715 84.9274C75.7117 84.9274 72.2784 81.4178 72.2784 77.0116C72.2784 72.6054 75.7117 69.0958 79.8715 69.0958C84.0312 69.0958 87.4646 72.6054 87.4646 77.0116Z" fill="#F7F7F7" stroke="#393939" stroke-width="1.95909"/>
<path d="M82.7288 78.6886C82.7288 79.3514 82.5045 79.8592 82.0558 80.2118C81.6072 80.5573 80.9849 80.7477 80.1887 80.783V81.6715H79.6295V80.7724C78.8018 80.723 78.1668 80.4938 77.7245 80.0848C77.2885 79.6758 77.0516 79.0976 77.0137 78.3501L78.0183 78.3078C78.0436 78.7379 78.1889 79.0905 78.4543 79.3655C78.7197 79.6335 79.1114 79.7922 79.6295 79.8415V77.4298L78.8618 77.1865C77.8066 76.8551 77.279 76.2099 77.279 75.2508C77.279 74.6021 77.497 74.112 77.933 73.7805C78.3753 73.442 78.9408 73.2622 79.6295 73.2411V72.3525H80.1887V73.2622C80.8585 73.3257 81.3987 73.5478 81.8094 73.9286C82.2264 74.3024 82.4602 74.8066 82.5108 75.4412L81.5061 75.5153C81.4872 75.1768 81.364 74.8912 81.1365 74.6585C80.909 74.4187 80.5931 74.2671 80.1887 74.2036V76.4567L81.0038 76.7105C81.5914 76.8939 82.0243 77.1407 82.3023 77.451C82.5866 77.7613 82.7288 78.1738 82.7288 78.6886ZM79.4305 76.2134L79.6295 76.2769V74.1719C79.2188 74.1931 78.9029 74.2918 78.6818 74.4681C78.4606 74.6373 78.35 74.87 78.35 75.1662C78.35 75.6457 78.7102 75.9948 79.4305 76.2134ZM80.1887 79.8415C81.1681 79.7922 81.6578 79.4361 81.6578 78.7732C81.6578 78.5264 81.563 78.3184 81.3734 78.1491C81.1902 77.9728 80.8901 77.8212 80.4731 77.6943L80.1887 77.5991V79.8415Z" fill="#393939"/>
</svg>
