<svg width="130" height="130" viewBox="0 0 130 130" fill="none" xmlns="http://www.w3.org/2000/svg">
<circle cx="65" cy="65" r="64.5" stroke="#7C7C7C"/>
<path d="M42 57.3452L42 79.0444C42 81.6411 44.105 83.7461 46.7017 83.7461H84.2983C86.895 83.7461 89 81.6411 89 79.0444V57.3452M42 57.3452L42 52.1949C42 49.5982 44.105 47.4932 46.7017 47.4932H84.2983C86.895 47.4932 89 49.5982 89 52.1948V57.3452M42 57.3452L65.1156 64.6063C66.0752 64.9077 67.1062 64.8934 68.0571 64.5656L89 57.3452" stroke="#393939" stroke-width="2.35084"/>
<path d="M74.7914 47.4929V46.7017C74.7914 44.105 72.6863 42 70.0897 42H60.9116C58.315 42 56.21 44.105 56.21 46.7017V47.4929" stroke="#393939" stroke-width="2.35084"/>
<path d="M94.1175 79.4572C94.1175 83.6928 90.7024 87.1188 86.499 87.1188C82.2957 87.1188 78.8806 83.6928 78.8806 79.4572C78.8806 75.2216 82.2957 71.7956 86.499 71.7956C90.7024 71.7956 94.1175 75.2216 94.1175 79.4572Z" fill="#F7F7F7" stroke="#393939" stroke-width="1.76313"/>
<path d="M89.3317 81.0681C89.3317 81.7047 89.1093 82.1923 88.6645 82.531C88.2197 82.8628 87.6026 83.0457 86.8132 83.0795V83.9329H86.2587V83.0694C85.438 83.022 84.8084 82.8019 84.3698 82.4091C83.9376 82.0163 83.7026 81.4609 83.665 80.743L84.6612 80.7024C84.6862 81.1155 84.8303 81.4541 85.0935 81.7183C85.3566 81.9756 85.745 82.128 86.2587 82.1754V79.8592L85.4975 79.6255C84.4513 79.3072 83.9282 78.6875 83.9282 77.7664C83.9282 77.1434 84.1443 76.6727 84.5766 76.3544C85.0151 76.0293 85.5759 75.8566 86.2587 75.8363V74.9829H86.8132V75.8566C87.4773 75.9175 88.0129 76.1309 88.4202 76.4966C88.8336 76.8555 89.0654 77.3398 89.1156 77.9493L88.1194 78.0204C88.1006 77.6953 87.9785 77.421 87.7529 77.1975C87.5274 76.9673 87.2141 76.8217 86.8132 76.7607V78.9246L87.6214 79.1684C88.204 79.3445 88.6332 79.5815 88.9088 79.8795C89.1907 80.1775 89.3317 80.5737 89.3317 81.0681ZM86.0614 78.6909L86.2587 78.7519V76.7302C85.8515 76.7506 85.5383 76.8454 85.319 77.0147C85.0997 77.1772 84.9901 77.4007 84.9901 77.6852C84.9901 78.1457 85.3472 78.481 86.0614 78.6909ZM86.8132 82.1754C87.7843 82.128 88.2698 81.786 88.2698 81.1494C88.2698 80.9123 88.1758 80.7125 87.9879 80.55C87.8062 80.3807 87.5086 80.2351 87.0951 80.1132L86.8132 80.0217V82.1754Z" fill="#393939"/>
</svg>
